<svg xmlns="http://www.w3.org/2000/svg" xmlns:xlink="http://www.w3.org/1999/xlink" version="1.1" x="0px" y="0px" viewBox="0 0 512 640" style="enable-background:new 0 0 512 512;" xml:space="preserve"><g><g><path d="M413.649,219.723c5.65,2.29,10.265,5.388,15.609,8.952c9.855,6.611,18.113,10.999,26.62,13.669    c8.435,2.669,17.327,3.729,28.563,3.729c0.569,0,1.115-0.252,1.509-0.64c0.385-0.379,0.61-0.915,0.61-1.507v-23.892    c0-0.575-0.226-1.103-0.635-1.49c-0.369-0.38-0.915-0.624-1.484-0.624l-4.534-0.032c-8.274-0.204-14.462-1.634-19.911-3.921    c-5.401-2.27-9.871-5.228-14.959-8.652c-5.843-3.937-12.432-8.325-20.754-11.674c-8.29-3.326-18.522-5.708-31.925-5.708    s-23.627,2.382-31.917,5.708c-8.29,3.333-14.895,7.737-20.762,11.674c-5.353,3.577-9.951,6.679-15.617,8.917    c-5.746,2.334-12.318,3.705-21.291,3.705c-8.965,0-15.529-1.371-21.299-3.705c-5.658-2.238-10.257-5.34-15.602-8.917    c-5.859-3.937-12.448-8.325-20.778-11.674c-8.282-3.326-18.53-5.708-31.933-5.708c-13.41,0-23.651,2.382-31.941,5.708    c-8.331,3.333-14.911,7.737-20.793,11.674c-5.345,3.577-10,6.679-15.666,8.917c-5.778,2.334-12.383,3.705-21.347,3.705    s-15.577-1.371-21.412-3.705c-5.746-2.238-10.409-5.34-15.73-8.917c-10.673-7.142-19.172-11.499-28-14.044    c-8.804-2.529-18.201-3.313-30.721-3.313c-0.586,0-1.124,0.224-1.493,0.607c-0.393,0.379-0.642,0.907-0.642,1.506v23.864    c0,0.491,0.192,0.983,0.481,1.323l0.16,0.155c0.37,0.392,0.931,0.656,1.493,0.656c9.068,0,15.521,0.344,22.038,2.13    c6.468,1.774,12.608,4.919,20.89,10.475c5.858,3.905,12.56,8.325,20.994,11.687c8.411,3.313,18.763,5.711,32.189,5.711    c13.387,0,23.619-2.398,31.901-5.711c8.347-3.361,14.911-7.782,20.77-11.687c5.313-3.564,9.935-6.662,15.609-8.952    c5.747-2.286,12.311-3.653,21.275-3.653c17.865,0,25.786,5.179,36.532,12.37l0.722,0.483    c11.493,7.706,25.874,17.149,52.317,17.149c26.477,0,40.842-9.46,52.35-17.173l0.329-0.24    c10.954-7.313,18.859-12.589,36.893-12.589C401.322,216.07,407.911,217.437,413.649,219.723 M424.034,236.437    c-4.911-3.281-9.116-6.099-13.867-8.009c-4.671-1.87-10.128-2.973-17.809-2.973c-15.048,0-21.966,4.496-31.299,10.75l-0.714,0.452    c-12.576,8.437-28.306,18.768-57.559,18.768c-29.525,0-45.255-10.519-57.895-18.988l-0.128-0.076    c-9.454-6.335-16.372-10.907-31.548-10.907c-7.688,0-13.138,1.103-17.792,2.973c-4.751,1.911-8.98,4.728-13.859,8.009    c-6.244,4.172-13.274,8.888-22.503,12.582c-9.301,3.745-20.689,6.406-35.4,6.406c-14.702,0-26.21-2.662-35.656-6.406    c-9.374-3.693-16.524-8.409-22.768-12.582c-7.416-4.98-12.76-7.746-18.153-9.224c-5.361-1.495-11.204-1.774-19.534-1.774    c-3.17,0-6.06-1.311-8.154-3.377l-0.361-0.404c-1.87-2.038-3.025-4.764-3.025-7.721v-23.864c0-3.153,1.284-6.015,3.387-8.101    c2.11-2.114,5-3.397,8.154-3.397c13.274,0,23.426,0.879,33.329,3.709c9.847,2.85,19.125,7.577,30.609,15.283    c4.903,3.285,9.173,6.098,13.988,8.013c4.703,1.866,10.24,2.973,17.937,2.973c7.664,0,13.178-1.107,17.84-2.973    c4.815-1.931,9.037-4.729,13.924-8.013c6.22-4.197,13.25-8.889,22.535-12.606c9.326-3.732,20.722-6.402,35.448-6.402    c14.719,0,26.123,2.67,35.416,6.402c9.253,3.717,16.283,8.409,22.527,12.606c4.879,3.269,9.117,6.098,13.852,8.013    c4.679,1.866,10.136,2.973,17.816,2.973c7.68,0,13.129-1.107,17.8-2.973c4.751-1.915,8.965-4.729,13.86-8.013    c6.211-4.197,13.233-8.889,22.527-12.606c9.285-3.732,20.673-6.402,35.399-6.402s26.122,2.67,35.408,6.402    c9.245,3.717,16.251,8.409,22.503,12.606c4.727,3.173,8.844,5.915,13.354,7.781c4.406,1.851,9.479,3.018,16.389,3.206l4.43-0.016    c3.178,0,6.051,1.307,8.162,3.369c2.086,2.078,3.387,4.964,3.387,8.129v23.892c0,3.142-1.301,6.027-3.387,8.105l-0.177,0.172    c-2.07,2.01-4.903,3.221-7.985,3.221c-12.198,0-21.966-1.167-31.403-4.152C443.656,248.314,434.7,243.566,424.034,236.437z     M429.211,306.654c9.903,6.627,18.161,11.016,26.668,13.709c8.435,2.654,17.327,3.725,28.563,3.725    c0.569,0,1.115-0.279,1.509-0.64c0.385-0.392,0.61-0.931,0.61-1.507v-23.896c0-0.567-0.226-1.118-0.635-1.503    c-0.369-0.379-0.915-0.615-1.484-0.615l-4.534-0.027c-8.274-0.196-14.462-1.643-19.911-3.93c-5.401-2.258-9.871-5.23-14.959-8.648    c-11.549-7.736-25.946-17.365-52.679-17.365c-13.402,0-23.627,2.358-31.917,5.68c-8.354,3.357-14.911,7.781-20.77,11.686    c-5.345,3.573-9.943,6.654-15.609,8.953c-5.746,2.285-12.318,3.652-21.291,3.652c-8.965,0-15.529-1.367-21.299-3.652    c-5.658-2.299-10.257-5.38-15.602-8.953c-5.859-3.904-12.448-8.328-20.778-11.686c-8.282-3.321-18.53-5.68-31.933-5.68    c-13.41,0-23.651,2.358-31.941,5.68c-8.362,3.357-14.959,7.781-20.793,11.686c-5.345,3.573-10,6.654-15.666,8.953    c-5.778,2.285-12.383,3.652-21.347,3.652s-15.577-1.367-21.412-3.652c-5.746-2.299-10.385-5.38-15.73-8.953    c-10.673-7.146-19.172-11.514-28-14.052c-8.804-2.51-18.201-3.313-30.721-3.313c-0.586,0-1.124,0.229-1.493,0.607    c-0.393,0.381-0.642,0.912-0.642,1.523v23.836c0,0.535,0.192,1.019,0.514,1.375l0.128,0.135c0.37,0.404,0.931,0.627,1.493,0.627    c9.068,0,15.537,0.345,22.038,2.131c6.468,1.799,12.592,4.928,20.89,10.499c5.858,3.921,12.56,8.31,20.994,11.675    c8.411,3.313,18.747,5.723,32.189,5.723c13.387,0,23.619-2.41,31.901-5.723c8.186-3.285,14.663-7.598,20.449-11.463l0.321-0.236    c10.938-7.305,18.843-12.605,36.884-12.605c18.049,0,25.954,5.301,36.876,12.605c11.564,7.758,25.962,17.422,52.694,17.422    c26.508,0,40.865-9.508,52.365-17.186l0.313-0.236c10.971-7.305,18.859-12.605,36.893-12.605c17.889,0,25.81,5.208,36.571,12.418    L429.211,306.654z M424.034,314.473l-0.353-0.248c-9.342-6.259-16.252-10.779-31.323-10.779c-15.224,0-22.11,4.616-31.636,10.979    l-0.338,0.232c-12.583,8.428-28.305,18.783-57.598,18.783c-29.549,0-45.279-10.543-57.895-18.983l-0.145-0.101    c-9.454-6.326-16.355-10.91-31.532-10.91c-15.232,0-22.134,4.616-31.652,10.979l-0.345,0.232    c-6.155,4.116-13.073,8.732-22.158,12.381c-9.301,3.732-20.689,6.402-35.4,6.402c-14.702,0-26.21-2.67-35.656-6.402    c-9.374-3.717-16.524-8.408-22.768-12.581c-7.416-4.987-12.76-7.766-18.153-9.26c-5.361-1.463-11.204-1.751-19.534-1.751    c-3.17,0-6.06-1.291-8.154-3.4l-0.321-0.336c-1.894-2.059-3.065-4.805-3.065-7.785v-23.836c0-3.15,1.284-6.02,3.387-8.119    c2.11-2.103,5-3.394,8.154-3.394c13.274,0,23.426,0.896,33.329,3.737c9.847,2.819,19.125,7.567,30.609,15.248    c4.903,3.281,9.173,6.131,13.988,8.014c4.703,1.866,10.24,2.985,17.937,2.985c7.664,0,13.178-1.119,17.84-2.985    c4.799-1.906,9.061-4.732,13.948-8.014c6.235-4.172,13.258-8.88,22.511-12.581c9.326-3.734,20.722-6.404,35.448-6.404    c14.719,0,26.123,2.67,35.416,6.404c9.253,3.701,16.283,8.409,22.527,12.581c4.879,3.281,9.117,6.107,13.852,8.014    c4.679,1.866,10.136,2.985,17.816,2.985c7.68,0,13.129-1.119,17.8-2.985c4.751-1.906,8.965-4.732,13.86-8.014    c6.243-4.172,13.273-8.88,22.527-12.581c9.285-3.734,20.673-6.404,35.399-6.404c29.541,0,45.271,10.529,57.911,18.985    c4.727,3.174,8.844,5.92,13.354,7.826c4.406,1.83,9.479,2.989,16.389,3.165h4.43c3.162,0,6.051,1.296,8.138,3.357    c2.11,2.094,3.411,4.956,3.411,8.137v23.896c0,3.13-1.301,6.031-3.387,8.109l-0.177,0.168c-2.07,1.994-4.903,3.221-7.985,3.221    c-12.198,0-21.966-1.158-31.403-4.132C443.656,326.33,434.7,321.578,424.034,314.473z"/></g></g></svg>