<svg xmlns="http://www.w3.org/2000/svg" version="1.1" viewBox="-5.0 -10.0 110.0 135.0">
 <path d="m46.664 28.766h-1.2773v-5.4883c0-2.6445-2.1484-4.793-4.793-4.793h-18.227c-2.6445 0-4.793 2.1484-4.793 4.793v5.4883h-1.2773c-4.5547 0-8.2617 3.707-8.2617 8.2617l-0.003906 34.5c0 4.5547 3.707 8.2617 8.2617 8.2617h1.2773v5.4883c0 2.6445 2.1484 4.793 4.793 4.793h18.227c2.6445 0 4.793-2.1484 4.793-4.793v-5.4883h1.2773c4.5547 0 8.2617-3.707 8.2617-8.2617l0.007813-34.5c0-4.5547-3.707-8.2617-8.2656-8.2617zm-27.445-5.4922c0-1.7344 1.4102-3.1484 3.1484-3.1484h18.227c1.7344 0 3.1484 1.4102 3.1484 3.1484v5.4883l-24.523 0.003906zm24.523 62.008c0 1.7344-1.4102 3.1484-3.1484 3.1484h-18.227c-1.7344 0-3.1484-1.4102-3.1484-3.1484v-5.4883h24.523zm9.543-13.754c0 3.6484-2.9688 6.6172-6.6172 6.6172h-30.371c-3.6484 0-6.6172-2.9688-6.6172-6.6172v-34.5c0-3.6484 2.9688-6.6172 6.6172-6.6172h30.371c3.6484 0 6.6172 2.9688 6.6172 6.6172z"/>
 <path d="m38.457 39.953c-2.7539 0-5.2812 1.2266-6.9727 3.3281-1.6914-2.1055-4.2227-3.3281-6.9766-3.3281-4.9414 0-8.9648 4.0195-8.9648 8.9648 0 10.695 14.902 19.219 15.535 19.578 0.125 0.070312 0.26562 0.10547 0.40234 0.10547 0.14062 0 0.27734-0.035156 0.40234-0.10547 0.63281-0.35938 15.535-8.8789 15.535-19.578 0-4.9414-4.0195-8.9648-8.9609-8.9648zm-6.9766 26.871c-2.3672-1.4297-14.293-9.082-14.293-17.906 0-4.0352 3.2812-7.3203 7.3203-7.3203 2.5859 0 4.9297 1.3242 6.2695 3.543 0.29688 0.49219 1.1094 0.49219 1.4062 0 1.3398-2.2188 3.6836-3.543 6.2695-3.543 4.0352 0 7.3203 3.2812 7.3203 7.3203 0 8.8125-11.926 16.473-14.293 17.906z"/>
 <path d="m91.145 14.105h-6.0195c-0.37109 0-0.69531 0.24609-0.79297 0.60156l-2.2617 8.168-3.8477-12.367c-0.097656-0.3125-0.37109-0.53516-0.69531-0.57422-0.32422-0.035156-0.64062 0.125-0.80469 0.40625l-3.4414 5.9414h-4.875c-0.35547 0-0.67188 0.23047-0.78125 0.56641l-2.0391 6.2422-3.9102-12.582c-0.10156-0.32031-0.38672-0.55078-0.72266-0.57812-0.33203-0.027344-0.65234 0.15625-0.80078 0.45703l-3.6172 7.3945h-5.8398c-0.45312 0-0.82422 0.36719-0.82422 0.82422 0 0.45312 0.36719 0.82422 0.82422 0.82422h6.3516c0.3125 0 0.60156-0.17969 0.73828-0.46094l2.9336-5.9961 4.0664 13.066c0.10547 0.34375 0.42188 0.57813 0.78125 0.57813h0.003906c0.35547 0 0.67188-0.23047 0.78125-0.56641l2.6562-8.125h4.75c0.29297 0 0.56641-0.15625 0.71094-0.41016l2.7383-4.7266 4.1211 13.254c0.10938 0.34375 0.42578 0.57812 0.78516 0.57812h0.011719c0.36328-0.003906 0.68359-0.25 0.78125-0.60156l2.8398-10.262h5.3906c0.45312 0 0.82422-0.36719 0.82422-0.82422 0.007812-0.46094-0.35938-0.82812-0.81641-0.82812z"/>
 <path d="m76.117 39.652c-0.33594 0.30469-0.36328 0.82422-0.058594 1.1641 6.3242 6.9961 5.7773 17.836-1.2188 24.16-0.33594 0.30469-0.36328 0.82422-0.058594 1.1641 0.16406 0.17969 0.38672 0.26953 0.60938 0.26953 0.19531 0 0.39453-0.070312 0.55078-0.21094 7.6719-6.9336 8.2695-18.816 1.3398-26.484-0.30859-0.33984-0.82812-0.36719-1.1641-0.0625z"/>
 <path d="m70.004 45.18c-0.33594 0.30469-0.36328 0.82422-0.058594 1.1641 3.2773 3.625 2.9961 9.2461-0.63281 12.523-0.33594 0.30469-0.36328 0.82422-0.058594 1.1641 0.16406 0.17969 0.38672 0.26953 0.60938 0.26953 0.19531 0 0.39453-0.070312 0.55078-0.21094 2.0781-1.8789 3.3047-4.4609 3.4453-7.2695 0.14062-2.8086-0.81641-5.5-2.6953-7.5781-0.30469-0.34375-0.82422-0.36719-1.1602-0.0625z"/>
 <path d="m63.891 50.703c-0.33594 0.30469-0.36328 0.82422-0.058594 1.1641 0.23438 0.26172 0.21484 0.65234-0.042969 0.88672-0.33594 0.30469-0.36328 0.82422-0.058593 1.1641 0.16406 0.17969 0.38672 0.27344 0.60938 0.27344 0.19531 0 0.39453-0.070312 0.55078-0.21094 0.92969-0.83984 1.0039-2.2812 0.16406-3.2109-0.30859-0.34375-0.82813-0.37109-1.1641-0.066406z"/>
 </svg>